<svg xmlns="http://www.w3.org/2000/svg" xmlns:xlink="http://www.w3.org/1999/xlink" width="500" zoomAndPan="magnify" viewBox="0 0 375 74.999997" height="100" preserveAspectRatio="xMidYMid meet" version="1.0"><defs><clipPath id="87abad0b7f"><path d="M 18 1.214844 L 357.386719 1.214844 L 357.386719 74 L 18 74 Z M 18 1.214844 " clip-rule="nonzero"/></clipPath><clipPath id="e12ec84a7a"><path d="M 112.5625 28.089844 C 110.277344 32.285156 105.417969 41.511719 104.984375 42.199219 C 103.683594 44.238281 101.117188 43.039062 101.691406 39.988281 C 102.808594 33.976562 108.878906 21.96875 113.582031 13.261719 C 105.476562 15.371094 108.3125 9.308594 113.117188 7.871094 C 121.78125 5.28125 135.363281 2.351562 146.359375 3.507812 C 151.304688 4.027344 150.679688 7.375 146.761719 7.539062 C 135.363281 8.265625 124.675781 10.488281 121.351562 11.800781 C 119.269531 14.878906 118.140625 17.144531 116.433594 19.886719 C 119.519531 19.234375 123.027344 18.597656 125.636719 18.535156 C 128.253906 18.46875 128.910156 19.136719 128.863281 20.261719 C 128.808594 21.726562 127.335938 21.996094 125.917969 22.371094 C 121.890625 23.476562 120.28125 23.855469 116.160156 25.136719 C 113.863281 25.855469 113.789062 25.832031 112.5625 28.089844 Z M 269.050781 33.480469 C 265.941406 32.726562 258.246094 33.175781 251.109375 36.121094 C 252.863281 29.660156 259.21875 18.214844 266.289062 8.4375 C 269.402344 4.128906 264.335938 4.285156 260.902344 8.574219 C 257.863281 12.375 244.25 29.539062 243.164062 36.394531 C 242.488281 40.644531 245.621094 43.125 250.59375 41.742188 C 255.566406 40.363281 260.535156 37.441406 267.785156 36.820312 C 269.992188 36.625 271.660156 34.113281 269.050781 33.480469 Z M 220.914062 41.511719 C 227.234375 44.179688 235.550781 35.738281 240.925781 27.875 C 248.65625 16.550781 254.832031 4.261719 253.03125 3.289062 C 252.03125 2.871094 250.886719 3.199219 249.824219 4.980469 C 232.710938 33.65625 225.660156 38.277344 224.195312 36.699219 C 223.324219 35.757812 224.996094 31.480469 228.707031 23.808594 C 231.921875 17.152344 236.613281 10.589844 234.238281 8.851562 C 231.949219 7.167969 228.808594 11.042969 226.433594 14.316406 C 221.660156 20.878906 213.222656 38.277344 220.914062 41.511719 Z M 310.46875 33.644531 C 306.308594 33.644531 305.117188 37.882812 309.535156 38.683594 C 329.6875 42.347656 355.929688 17.96875 357.140625 6.738281 C 357.421875 4.089844 355.703125 2.21875 353.121094 1.730469 C 340.390625 -0.683594 289.265625 16.039062 289.265625 43.992188 C 289.265625 55.382812 297.371094 64.828125 310.578125 64.828125 C 325.617188 64.828125 341.566406 53.929688 348.554688 44.824219 C 350.441406 42.367188 350.089844 38.183594 345.675781 41.566406 C 332.851562 51.414062 320.992188 53.789062 314.019531 53.84375 C 302.847656 53.933594 294.125 43.253906 305.261719 30.246094 C 317.167969 16.332031 346.019531 7.132812 346.972656 8.296875 C 348.101562 9.65625 328.671875 33.621094 310.46875 33.644531 Z M 288.289062 4.214844 C 280.621094 7.628906 267.695312 19.242188 262.964844 25.984375 C 260.0625 30.121094 264.550781 30.320312 267.746094 27.179688 C 274.144531 20.898438 284.070312 11.765625 284.597656 12.152344 C 284.691406 12.21875 280.636719 20.644531 278.820312 29.671875 C 278.316406 28.070312 277.527344 26.582031 276.488281 25.269531 C 275.046875 23.375 271.640625 23.683594 273.324219 26.679688 C 274.507812 28.878906 275.320312 31.25 275.738281 33.714844 C 276.339844 37.035156 276.339844 39.09375 276.714844 40.636719 C 277.746094 44.855469 281.953125 44.320312 282.488281 40.234375 C 284.894531 21.691406 291.757812 10.808594 293.414062 7.179688 C 294.71875 4.339844 291.242188 2.898438 288.289062 4.214844 Z M 133.542969 41.039062 C 127.835938 40.988281 125.265625 36.855469 125.917969 32.324219 C 127.195312 23.382812 135.046875 14.160156 144.042969 13.367188 C 145.445312 13.25 146.1875 12.128906 147.554688 12.003906 C 150.917969 11.695312 153.421875 15.492188 152.621094 21.21875 C 151.390625 29.929688 142.027344 41.121094 133.542969 41.039062 Z M 146.5625 16.78125 C 136.78125 18.226562 128.714844 34.488281 131.976562 35.957031 C 135.488281 37.558594 147.964844 27.976562 146.5625 16.789062 C 146.5625 16.785156 146.5625 16.78125 146.5625 16.78125 Z M 63.902344 58.207031 C 63.902344 66.824219 56.925781 73.804688 48.316406 73.804688 C 45.773438 73.804688 43.265625 73.179688 41.023438 71.984375 C 33.4375 76.082031 23.976562 73.246094 19.882812 65.648438 C 15.789062 58.054688 18.625 48.578125 26.207031 44.480469 C 28.492188 43.246094 31.050781 42.601562 33.648438 42.605469 C 36.222656 42.597656 38.753906 43.230469 41.023438 44.453125 C 48.609375 40.394531 58.042969 43.265625 62.101562 50.863281 C 63.304688 53.121094 63.933594 55.644531 63.9375 58.207031 Z M 21.765625 49.695312 L 24.6875 49.695312 C 24.027344 49.292969 23.390625 48.835938 22.789062 48.339844 C 22.421875 48.773438 22.078125 49.222656 21.757812 49.695312 Z M 18.953125 57.972656 L 21.738281 57.972656 L 21.738281 49.710938 C 19.992188 52.117188 19.027344 55 18.964844 57.972656 Z M 22.773438 68.117188 C 23.460938 67.550781 24.191406 67.035156 24.957031 66.578125 L 21.738281 66.578125 L 21.738281 58.484375 L 18.964844 58.484375 C 19.023438 62.050781 20.378906 65.476562 22.785156 68.113281 L 22.773438 68.113281 Z M 33.292969 72.90625 C 31.101562 70.871094 29.351562 68.402344 28.160156 65.660156 C 27.976562 65.722656 27.796875 65.792969 27.609375 65.867188 L 27.609375 66.574219 L 25.960938 66.574219 C 24.960938 67.113281 24.023438 67.753906 23.152344 68.484375 C 25.824219 71.230469 29.464844 72.820312 33.292969 72.90625 Z M 27.964844 65.171875 C 27.835938 64.855469 27.714844 64.542969 27.613281 64.21875 L 27.613281 65.296875 Z M 33.390625 64.714844 C 31.78125 64.734375 30.179688 64.996094 28.640625 65.484375 C 29.738281 68.027344 31.359375 70.3125 33.390625 72.191406 C 33.390625 72.191406 33.390625 64.714844 33.390625 64.714844 Z M 33.390625 58.464844 L 32.238281 58.464844 L 32.238281 60.640625 L 27.609375 60.640625 L 27.609375 62.398438 C 27.828125 63.292969 28.105469 64.175781 28.453125 65.03125 C 30.050781 64.523438 31.714844 64.25 33.398438 64.230469 Z M 33.390625 52.21875 L 32.804688 52.21875 L 32.804688 54.222656 L 27.609375 54.222656 L 27.609375 56.425781 L 32.242188 56.425781 L 32.242188 57.988281 L 33.402344 57.988281 C 33.402344 57.984375 33.390625 52.21875 33.390625 52.21875 Z M 33.390625 44.230469 C 31.703125 45.792969 30.300781 47.636719 29.242188 49.679688 L 32.804688 49.679688 L 32.804688 51.6875 L 33.390625 51.6875 Z M 33.390625 43.527344 C 29.523438 43.59375 25.832031 45.199219 23.140625 47.984375 C 23.941406 48.636719 24.800781 49.21875 25.710938 49.710938 L 28.660156 49.710938 C 29.828125 47.371094 31.433594 45.28125 33.390625 43.546875 C 33.390625 43.546875 33.390625 43.527344 33.390625 43.527344 Z M 33.90625 43.527344 C 35.726562 45.132812 37.238281 47.054688 38.382812 49.195312 L 38.597656 49.195312 C 39.390625 49.199219 40.15625 49.527344 40.703125 50.109375 C 41.914062 49.535156 43.054688 48.808594 44.089844 47.957031 C 41.40625 45.203125 37.75 43.621094 33.90625 43.550781 Z M 42.601562 66.558594 L 45.128906 58.46875 L 41.214844 58.46875 L 41.214844 65.996094 C 42.375 66.578125 43.460938 67.285156 44.457031 68.105469 C 44.890625 67.621094 45.304688 67.105469 45.679688 66.566406 Z M 45.441406 68.402344 C 46.425781 68.695312 47.4375 68.839844 48.460938 68.839844 C 50.835938 68.816406 53.136719 68.015625 55.007812 66.554688 L 53.449219 66.554688 L 52.976562 64.503906 L 49.097656 64.503906 L 48.589844 66.554688 L 46.835938 66.554688 C 46.414062 67.207031 45.949219 67.832031 45.441406 68.421875 C 45.4375 68.421875 45.441406 68.402344 45.441406 68.402344 Z M 52.113281 60.785156 L 51.101562 56.421875 L 50.050781 60.796875 C 50.042969 60.796875 52.113281 60.785156 52.113281 60.785156 Z M 58.25 62.320312 C 60.515625 56.910156 57.976562 50.683594 52.574219 48.410156 C 51.265625 47.863281 49.867188 47.582031 48.457031 47.582031 C 47.433594 47.582031 46.414062 47.726562 45.4375 48.011719 C 46.222656 48.910156 46.890625 49.898438 47.441406 50.957031 L 47.792969 49.828125 L 54.75 49.828125 Z M 44.460938 48.332031 C 43.414062 49.195312 42.265625 49.925781 41.050781 50.527344 C 41.898438 51.832031 41.574219 53.578125 40.3125 54.488281 C 40.402344 54.886719 40.464844 55.277344 40.523438 55.679688 L 41.226562 55.679688 L 41.226562 57.960938 L 45.285156 57.960938 L 47.039062 52.289062 C 46.398438 50.835938 45.527344 49.503906 44.460938 48.332031 Z M 33.90625 51.710938 C 34.511719 51.703125 35.125 51.660156 35.726562 51.578125 C 35.929688 50.472656 36.75 49.585938 37.832031 49.292969 C 36.800781 47.40625 35.464844 45.695312 33.890625 44.230469 Z M 33.90625 57.960938 L 35.902344 57.960938 L 35.902344 55.679688 L 40.003906 55.679688 C 39.953125 55.371094 39.902344 55.070312 39.839844 54.769531 C 38.378906 55.453125 36.640625 54.824219 35.953125 53.363281 C 35.773438 52.972656 35.675781 52.550781 35.675781 52.121094 C 35.085938 52.175781 34.492188 52.214844 33.917969 52.222656 Z M 33.90625 64.207031 C 34.574219 64.21875 35.238281 64.269531 35.902344 64.359375 L 35.902344 58.476562 L 33.910156 58.476562 Z M 33.90625 72.195312 C 35.636719 70.582031 37.078125 68.675781 38.160156 66.574219 L 35.902344 66.574219 L 35.902344 64.878906 C 35.238281 64.789062 34.574219 64.734375 33.90625 64.726562 Z M 44.113281 68.484375 C 43.222656 67.746094 42.253906 67.101562 41.226562 66.566406 L 38.730469 66.566406 C 37.542969 68.96875 35.90625 71.117188 33.910156 72.894531 C 37.761719 72.835938 41.429688 71.25 44.117188 68.492188 L 44.117188 68.484375 Z M 59.425781 48.683594 L 58.539062 49.390625 L 57.292969 48.152344 L 58.027344 47.242188 C 57.574219 46.84375 57.09375 46.46875 56.605469 46.121094 L 55.933594 47.046875 L 54.410156 46.179688 L 54.886719 45.101562 C 54.34375 44.832031 53.789062 44.59375 53.226562 44.394531 L 52.8125 45.484375 L 51.105469 45.03125 L 51.292969 43.859375 C 50.703125 43.734375 50.101562 43.640625 49.492188 43.59375 L 49.382812 44.757812 L 47.628906 44.757812 L 47.503906 43.558594 C 46.898438 43.589844 46.289062 43.660156 45.691406 43.769531 L 45.890625 44.949219 L 44.1875 45.410156 L 43.757812 44.265625 C 43.136719 44.476562 42.53125 44.714844 41.9375 45.003906 C 43.101562 45.730469 44.164062 46.613281 45.097656 47.617188 C 50.960938 45.765625 57.214844 49.023438 59.074219 54.898438 C 59.929688 57.609375 59.714844 60.542969 58.480469 63.105469 L 59.46875 66.566406 L 55.863281 66.566406 C 52.910156 69.164062 48.816406 70.027344 45.074219 68.839844 C 44.136719 69.839844 43.074219 70.722656 41.910156 71.449219 C 42.503906 71.738281 43.113281 71.984375 43.738281 72.183594 L 44.132812 71.054688 L 45.847656 71.464844 L 45.679688 72.679688 C 46.277344 72.78125 46.878906 72.851562 47.484375 72.882812 L 47.578125 71.703125 L 49.332031 71.664062 L 49.484375 72.851562 C 50.085938 72.804688 50.6875 72.71875 51.277344 72.589844 L 51.0625 71.445312 L 52.757812 70.949219 L 53.210938 72.042969 C 53.78125 71.84375 54.335938 71.613281 54.875 71.339844 L 54.378906 70.285156 L 55.882812 69.378906 L 56.585938 70.320312 C 57.082031 69.972656 57.558594 69.59375 58.007812 69.191406 L 57.273438 68.324219 L 58.492188 67.054688 L 59.402344 67.777344 C 59.792969 67.3125 60.160156 66.832031 60.5 66.328125 L 59.566406 65.675781 L 60.417969 64.132812 L 61.46875 64.589844 C 61.734375 64.039062 61.96875 63.480469 62.175781 62.90625 L 61.117188 62.53125 L 61.542969 60.808594 L 62.683594 60.980469 C 62.792969 60.417969 62.867188 59.847656 62.90625 59.273438 L 61.785156 59.164062 L 61.785156 57.40625 L 62.917969 57.28125 C 62.882812 56.679688 62.808594 56.078125 62.691406 55.488281 L 61.582031 55.671875 L 61.105469 53.976562 L 62.179688 53.558594 C 61.984375 52.984375 61.753906 52.421875 61.492188 51.875 L 60.460938 52.34375 L 59.574219 50.820312 L 60.503906 50.144531 C 60.179688 49.628906 59.816406 49.148438 59.425781 48.683594 Z M 152.269531 34.410156 C 155.277344 26.320312 160.210938 16.953125 161.433594 14.71875 C 160.480469 15.015625 160.011719 15.308594 159.015625 15.597656 C 155.804688 16.542969 155.71875 13.710938 159.402344 11.242188 C 164.816406 7.601562 170.339844 6.085938 176.957031 6.066406 C 183.941406 6.042969 185.484375 9.65625 185.179688 12 C 184.492188 17.277344 173.714844 23.71875 166.667969 27.058594 C 169.078125 29.308594 177.140625 35.03125 183.398438 37.882812 C 186.34375 39.226562 183.921875 41.835938 179.636719 40.59375 C 174.117188 39.003906 164.832031 33.371094 159.761719 29.476562 C 158.328125 32.660156 156.707031 35.980469 155.441406 38.863281 C 153.660156 42.898438 150.453125 39.257812 152.269531 34.386719 Z M 162.078125 24.367188 C 169.65625 19.914062 178.117188 15.222656 178.453125 12.410156 C 178.738281 9.945312 173.386719 10.929688 167.992188 12.828125 C 166.238281 15.894531 164.519531 19.503906 162.082031 24.355469 L 162.082031 24.367188 Z M 223.035156 8.769531 C 225.6875 4.339844 220.984375 2.621094 215.660156 5.859375 C 210.335938 9.097656 204.363281 14.027344 197.15625 24.054688 C 199.988281 10.917969 201.367188 10.125 201.566406 7.527344 C 201.746094 5.28125 200.042969 3.660156 196.132812 6.691406 C 192.859375 9.222656 186.667969 16.578125 181.886719 26.734375 C 179.722656 31.324219 182.398438 35.214844 184.210938 31.492188 C 185.878906 28.066406 191.671875 18.433594 195.285156 14.003906 C 192.871094 21.328125 191.492188 27.84375 191.109375 32.644531 C 190.816406 36.285156 194.113281 38.011719 196.222656 34.09375 C 200.515625 26.125 213.757812 12.222656 214.199219 12.644531 C 214.335938 12.769531 205.546875 27.515625 204.019531 38.027344 C 203.238281 43.363281 206.886719 45.824219 208.035156 41.875 C 212.195312 27.566406 216.058594 20.394531 223.035156 8.765625 C 223.035156 8.761719 223.035156 8.769531 223.035156 8.769531 Z M 259.898438 57.769531 L 255.582031 57.769531 L 255.582031 53.71875 L 252.867188 53.71875 L 252.867188 64.050781 L 255.582031 64.050781 L 255.582031 60.101562 L 259.898438 60.101562 L 259.898438 64.050781 L 262.613281 64.050781 L 262.613281 53.71875 L 259.898438 53.71875 Z M 247.242188 58.152344 C 246.414062 58.097656 245.585938 58.003906 244.761719 57.875 C 244.390625 57.832031 244.03125 57.710938 243.710938 57.523438 C 243.539062 57.390625 243.441406 57.1875 243.449219 56.976562 C 243.4375 56.644531 243.609375 56.335938 243.894531 56.175781 C 244.335938 55.96875 244.816406 55.878906 245.300781 55.914062 C 245.699219 55.910156 246.101562 55.941406 246.496094 56.003906 C 246.773438 56.050781 247.039062 56.160156 247.269531 56.324219 C 247.472656 56.480469 247.636719 56.691406 247.726562 56.933594 L 250.015625 55.6875 C 249.769531 54.972656 249.234375 54.398438 248.535156 54.113281 C 247.550781 53.742188 246.5 53.570312 245.449219 53.617188 C 244.640625 53.597656 243.832031 53.734375 243.066406 54.011719 C 242.460938 54.230469 241.925781 54.628906 241.550781 55.152344 C 241.191406 55.679688 241.011719 56.3125 241.03125 56.945312 C 241.007812 57.464844 241.109375 57.984375 241.324219 58.457031 C 241.558594 58.863281 241.921875 59.167969 242.359375 59.324219 C 243.03125 59.570312 243.726562 59.714844 244.441406 59.757812 C 245.175781 59.816406 245.914062 59.910156 246.640625 60.035156 C 246.972656 60.070312 247.292969 60.191406 247.570312 60.386719 C 247.738281 60.550781 247.824219 60.777344 247.808594 61.007812 C 247.820312 61.234375 247.742188 61.457031 247.59375 61.625 C 247.410156 61.800781 247.171875 61.917969 246.921875 61.953125 C 246.523438 62.027344 246.121094 62.066406 245.71875 62.054688 C 245.265625 62.066406 244.816406 62.023438 244.375 61.921875 C 244.09375 61.863281 243.832031 61.738281 243.609375 61.550781 C 243.425781 61.382812 243.296875 61.175781 243.222656 60.9375 L 240.945312 62.152344 C 241.03125 62.582031 241.265625 62.960938 241.601562 63.234375 C 242.058594 63.589844 242.585938 63.847656 243.144531 63.980469 C 243.910156 64.171875 244.699219 64.261719 245.488281 64.25 C 247.125 64.25 248.359375 63.976562 249.175781 63.433594 C 249.988281 62.894531 250.449219 61.964844 250.394531 60.996094 C 250.375 59.257812 249.324219 58.300781 247.242188 58.128906 Z M 223.367188 55.902344 C 223.78125 56.882812 223.96875 57.9375 223.933594 59 C 223.964844 60.011719 223.738281 61.007812 223.269531 61.902344 C 222.859375 62.667969 222.21875 63.285156 221.445312 63.679688 C 220.617188 64.082031 219.710938 64.28125 218.789062 64.269531 C 217.019531 64.269531 215.707031 63.828125 214.84375 62.941406 C 213.984375 62.054688 213.554688 60.679688 213.554688 58.804688 C 213.523438 57.789062 213.765625 56.785156 214.257812 55.890625 C 214.691406 55.125 215.339844 54.507812 216.121094 54.109375 C 216.917969 53.710938 217.804688 53.507812 218.691406 53.519531 C 219.710938 53.484375 220.71875 53.683594 221.648438 54.105469 C 222.410156 54.484375 223.015625 55.117188 223.367188 55.890625 C 223.371094 55.894531 223.367188 55.902344 223.367188 55.902344 Z M 221.148438 58.992188 C 221.148438 57.902344 220.921875 57.117188 220.449219 56.640625 C 219.980469 56.160156 219.324219 55.902344 218.648438 55.9375 C 218.234375 55.925781 217.824219 56.011719 217.445312 56.183594 C 217.085938 56.367188 216.808594 56.679688 216.65625 57.054688 C 216.4375 57.613281 216.335938 58.210938 216.363281 58.8125 C 216.363281 59.910156 216.585938 60.699219 217.035156 61.175781 C 217.5 61.652344 218.148438 61.914062 218.820312 61.878906 C 219.242188 61.894531 219.660156 61.8125 220.042969 61.640625 C 220.410156 61.449219 220.691406 61.144531 220.84375 60.761719 C 221.0625 60.195312 221.167969 59.59375 221.148438 58.992188 Z M 235.382812 62.085938 L 234.875 62.085938 L 231.640625 53.71875 L 226.765625 53.71875 L 226.765625 64.050781 L 229.074219 64.050781 L 229.074219 55.679688 L 229.574219 55.679688 L 232.796875 64.050781 L 237.671875 64.050781 L 237.671875 53.71875 L 235.363281 53.71875 C 235.367188 53.71875 235.382812 62.085938 235.382812 62.085938 Z M 265.902344 64.050781 L 268.613281 64.050781 L 268.613281 53.71875 L 265.902344 53.71875 Z M 116.160156 53.71875 L 113.453125 53.71875 L 113.453125 64.050781 L 120.867188 64.050781 L 120.867188 61.699219 L 116.160156 61.699219 Z M 280.765625 55.429688 C 281.167969 56.089844 281.367188 56.855469 281.339844 57.625 C 281.371094 58.398438 281.175781 59.164062 280.777344 59.828125 C 280.367188 60.425781 279.769531 60.875 279.074219 61.097656 C 278.140625 61.398438 277.152344 61.535156 276.171875 61.507812 L 274.609375 61.507812 L 274.609375 64.050781 L 271.894531 64.050781 L 271.894531 53.71875 L 276.695312 53.71875 C 277.535156 53.703125 278.371094 53.84375 279.152344 54.140625 C 279.816406 54.390625 280.386719 54.84375 280.773438 55.429688 Z M 278.566406 57.625 C 278.585938 57.265625 278.511719 56.910156 278.351562 56.585938 C 278.214844 56.335938 277.992188 56.144531 277.722656 56.050781 C 277.363281 55.9375 276.984375 55.878906 276.597656 55.894531 L 274.601562 55.894531 L 274.601562 59.335938 L 276.277344 59.335938 C 276.710938 59.347656 277.136719 59.292969 277.546875 59.175781 C 277.851562 59.089844 278.117188 58.898438 278.300781 58.644531 C 278.492188 58.339844 278.585938 57.984375 278.570312 57.628906 L 278.566406 57.628906 Z M 148.71875 61.410156 C 148.269531 61.722656 147.734375 61.871094 147.191406 61.84375 C 146.730469 61.855469 146.265625 61.757812 145.84375 61.558594 C 145.460938 61.355469 145.15625 61.023438 144.988281 60.617188 C 144.761719 60.054688 144.660156 59.445312 144.683594 58.835938 C 144.683594 57.820312 144.917969 57.109375 145.386719 56.707031 C 145.882812 56.285156 146.519531 56.066406 147.171875 56.09375 C 147.664062 56.070312 148.152344 56.183594 148.582031 56.417969 C 148.9375 56.667969 149.140625 57.085938 149.113281 57.523438 L 151.921875 56.644531 C 151.90625 55.675781 151.367188 54.796875 150.519531 54.339844 C 149.484375 53.828125 148.335938 53.585938 147.179688 53.636719 C 146.246094 53.621094 145.328125 53.816406 144.484375 54.210938 C 143.691406 54.597656 143.03125 55.207031 142.589844 55.96875 C 142.101562 56.847656 141.855469 57.851562 141.886719 58.855469 C 141.886719 60.691406 142.335938 62.054688 143.234375 62.9375 C 144.128906 63.816406 145.464844 64.257812 147.238281 64.257812 C 148.9375 64.257812 150.171875 63.945312 150.941406 63.3125 C 151.707031 62.695312 152.140625 61.765625 152.128906 60.785156 L 149.296875 60.183594 C 149.308594 60.660156 149.09375 61.113281 148.71875 61.410156 Z M 98.195312 55.894531 C 98.609375 56.871094 98.800781 57.929688 98.761719 58.992188 C 98.792969 59.996094 98.5625 61 98.101562 61.894531 C 97.6875 62.660156 97.054688 63.28125 96.28125 63.667969 C 95.453125 64.074219 94.539062 64.273438 93.617188 64.257812 C 91.851562 64.257812 90.535156 63.8125 89.675781 62.933594 C 88.816406 62.046875 88.386719 60.671875 88.386719 58.796875 C 88.355469 57.78125 88.601562 56.769531 89.089844 55.878906 C 89.519531 55.117188 90.167969 54.5 90.953125 54.101562 C 91.753906 53.703125 92.632812 53.496094 93.527344 53.511719 C 94.542969 53.472656 95.554688 53.671875 96.480469 54.101562 C 97.242188 54.480469 97.851562 55.117188 98.195312 55.894531 Z M 95.976562 58.992188 C 95.976562 57.902344 95.75 57.117188 95.289062 56.640625 C 94.816406 56.160156 94.164062 55.902344 93.492188 55.9375 C 93.078125 55.925781 92.664062 56.011719 92.289062 56.183594 C 91.933594 56.367188 91.652344 56.679688 91.5 57.054688 C 91.28125 57.613281 91.179688 58.210938 91.207031 58.8125 C 91.207031 59.910156 91.429688 60.699219 91.875 61.175781 C 92.339844 61.65625 92.988281 61.914062 93.660156 61.878906 C 94.082031 61.894531 94.5 61.8125 94.882812 61.640625 C 95.242188 61.449219 95.53125 61.144531 95.683594 60.761719 C 95.902344 60.195312 96.003906 59.59375 95.976562 58.992188 Z M 160.460938 57.753906 L 156.140625 57.753906 L 156.140625 53.71875 L 153.433594 53.71875 L 153.433594 64.050781 L 156.140625 64.050781 L 156.140625 60.101562 L 160.460938 60.101562 L 160.460938 64.050781 L 163.167969 64.050781 L 163.167969 53.71875 L 160.460938 53.71875 Z M 82.628906 61.777344 L 82.042969 61.777344 L 80.34375 53.71875 L 76.628906 53.71875 L 74.941406 61.777344 L 74.355469 61.777344 L 72.46875 53.71875 L 69.660156 53.71875 L 72.363281 64.050781 L 76.578125 64.050781 L 78.167969 56.421875 L 78.792969 56.421875 L 80.335938 64.054688 L 84.628906 64.054688 L 87.253906 53.722656 L 84.441406 53.722656 C 84.441406 53.71875 82.628906 61.777344 82.628906 61.777344 Z M 204.867188 55.429688 C 205.269531 56.089844 205.472656 56.855469 205.441406 57.625 C 205.472656 58.398438 205.273438 59.164062 204.882812 59.828125 C 204.46875 60.429688 203.871094 60.875 203.179688 61.097656 C 202.242188 61.398438 201.261719 61.535156 200.28125 61.507812 L 198.710938 61.507812 L 198.710938 64.050781 L 196.003906 64.050781 L 196.003906 53.71875 L 200.785156 53.71875 C 201.621094 53.703125 202.460938 53.84375 203.242188 54.140625 C 203.90625 54.386719 204.472656 54.84375 204.867188 55.429688 Z M 202.667969 57.625 C 202.6875 57.265625 202.613281 56.910156 202.457031 56.585938 C 202.316406 56.34375 202.097656 56.164062 201.835938 56.070312 C 201.472656 55.949219 201.089844 55.898438 200.710938 55.914062 L 198.714844 55.914062 L 198.714844 59.351562 L 200.394531 59.351562 C 200.824219 59.367188 201.253906 59.3125 201.664062 59.195312 C 201.96875 59.109375 202.238281 58.921875 202.421875 58.664062 C 202.609375 58.347656 202.695312 57.984375 202.667969 57.625 Z M 207.992188 64.050781 L 210.699219 64.050781 L 210.699219 53.71875 L 207.992188 53.71875 Z M 132.582031 55.960938 C 133.042969 56.886719 133.261719 57.921875 133.214844 58.953125 C 133.253906 59.957031 132.984375 60.949219 132.445312 61.796875 C 131.933594 62.558594 131.207031 63.144531 130.359375 63.488281 C 129.40625 63.863281 128.386719 64.054688 127.363281 64.035156 L 123.082031 64.035156 L 123.082031 53.714844 L 126.753906 53.714844 C 128.035156 53.667969 129.316406 53.859375 130.535156 54.273438 C 131.394531 54.574219 132.121094 55.175781 132.578125 55.96875 L 132.578125 55.960938 Z M 130.3125 58.960938 C 130.34375 58.347656 130.226562 57.734375 129.960938 57.179688 C 129.726562 56.746094 129.34375 56.417969 128.886719 56.246094 C 128.296875 56.042969 127.671875 55.949219 127.054688 55.96875 L 125.808594 55.96875 L 125.808594 61.773438 L 127.367188 61.773438 C 127.894531 61.789062 128.421875 61.703125 128.921875 61.535156 C 129.355469 61.378906 129.714844 61.078125 129.953125 60.683594 C 130.226562 60.160156 130.355469 59.566406 130.320312 58.972656 C 130.3125 58.96875 130.3125 58.960938 130.3125 58.960938 Z M 108.4375 59.910156 L 111.175781 63.824219 L 111.175781 64.050781 L 108.195312 64.050781 L 105.917969 60.5625 L 103.761719 60.5625 L 103.761719 64.050781 L 101.066406 64.050781 L 101.066406 53.71875 L 106.144531 53.71875 C 107.59375 53.71875 108.71875 53.980469 109.535156 54.5 C 110.335938 54.992188 110.804688 55.878906 110.753906 56.816406 C 110.785156 57.503906 110.601562 58.179688 110.21875 58.761719 C 109.761719 59.320312 109.136719 59.722656 108.4375 59.910156 Z M 107.914062 57.273438 C 107.9375 56.964844 107.859375 56.664062 107.691406 56.410156 C 107.535156 56.207031 107.316406 56.0625 107.066406 56 C 106.71875 55.921875 106.367188 55.886719 106.011719 55.894531 L 103.742188 55.894531 L 103.742188 58.625 L 105.53125 58.625 C 106.132812 58.652344 106.730469 58.546875 107.285156 58.308594 C 107.6875 58.125 107.9375 57.714844 107.914062 57.273438 C 107.917969 57.273438 107.914062 57.273438 107.914062 57.273438 Z M 173.328125 53.71875 L 176.535156 64.050781 L 173.535156 64.050781 L 173.046875 62.339844 L 168.734375 62.339844 L 168.246094 64.050781 L 165.320312 64.050781 L 168.523438 53.71875 C 168.519531 53.71875 173.328125 53.71875 173.328125 53.71875 Z M 172.429688 60.183594 L 171.070312 55.371094 L 170.71875 55.371094 L 169.359375 60.175781 Z M 186.007812 61.433594 L 185.535156 61.433594 L 183.382812 53.71875 L 178.6875 53.71875 L 178.6875 64.050781 L 180.953125 64.050781 L 180.953125 55.929688 L 181.4375 55.929688 L 183.894531 64.050781 L 187.738281 64.050781 L 190.21875 55.929688 L 190.714844 55.929688 L 190.714844 64.050781 L 192.96875 64.050781 L 192.96875 53.71875 L 188.273438 53.71875 Z M 186.007812 61.433594 " clip-rule="nonzero"/></clipPath><linearGradient x1="27.487239" gradientTransform="matrix(0.462959, 0, 0, -0.463647, 4.121508, 172.590805)" y1="225.870116" x2="766.854611" gradientUnits="userSpaceOnUse" y2="346.293271" id="bfb66ac876"><stop stop-opacity="1" stop-color="rgb(0%, 17.999268%, 38.798523%)" offset="0"/><stop stop-opacity="1" stop-color="rgb(0%, 17.999268%, 38.798523%)" offset="0.015625"/><stop stop-opacity="1" stop-color="rgb(0%, 17.945862%, 38.977051%)" offset="0.0234375"/><stop stop-opacity="1" stop-color="rgb(0%, 17.82074%, 39.404297%)" offset="0.0273437"/><stop stop-opacity="1" stop-color="rgb(0%, 17.749023%, 39.651489%)" offset="0.03125"/><stop stop-opacity="1" stop-color="rgb(0%, 17.675781%, 39.898682%)" offset="0.0351562"/><stop stop-opacity="1" stop-color="rgb(0%, 17.604065%, 40.145874%)" offset="0.0390625"/><stop stop-opacity="1" stop-color="rgb(0%, 17.530823%, 40.393066%)" offset="0.0429687"/><stop stop-opacity="1" stop-color="rgb(0%, 17.457581%, 40.640259%)" offset="0.046875"/><stop stop-opacity="1" stop-color="rgb(0%, 17.384338%, 40.887451%)" offset="0.0507812"/><stop stop-opacity="1" stop-color="rgb(0%, 17.312622%, 41.134644%)" offset="0.0546875"/><stop stop-opacity="1" stop-color="rgb(0%, 17.23938%, 41.381836%)" offset="0.0585938"/><stop stop-opacity="1" stop-color="rgb(0%, 17.167664%, 41.629028%)" offset="0.0625"/><stop stop-opacity="1" stop-color="rgb(0%, 17.094421%, 41.876221%)" offset="0.0664062"/><stop stop-opacity="1" stop-color="rgb(0%, 17.021179%, 42.123413%)" offset="0.0703125"/><stop stop-opacity="1" stop-color="rgb(0%, 16.947937%, 42.370605%)" offset="0.0742187"/><stop stop-opacity="1" stop-color="rgb(0%, 16.876221%, 42.617798%)" offset="0.078125"/><stop stop-opacity="1" stop-color="rgb(0%, 16.802979%, 42.86499%)" offset="0.0820313"/><stop stop-opacity="1" stop-color="rgb(0%, 16.731262%, 43.112183%)" offset="0.0859375"/><stop stop-opacity="1" stop-color="rgb(0%, 16.65802%, 43.359375%)" offset="0.0898438"/><stop stop-opacity="1" stop-color="rgb(0%, 16.584778%, 43.606567%)" offset="0.09375"/><stop stop-opacity="1" stop-color="rgb(0%, 16.511536%, 43.85376%)" offset="0.0976562"/><stop stop-opacity="1" stop-color="rgb(0%, 16.439819%, 44.100952%)" offset="0.101562"/><stop stop-opacity="1" stop-color="rgb(0%, 16.366577%, 44.348145%)" offset="0.105469"/><stop stop-opacity="1" stop-color="rgb(0%, 16.294861%, 44.595337%)" offset="0.109375"/><stop stop-opacity="1" stop-color="rgb(0%, 16.221619%, 44.842529%)" offset="0.113281"/><stop stop-opacity="1" stop-color="rgb(0%, 16.149902%, 45.089722%)" offset="0.117188"/><stop stop-opacity="1" stop-color="rgb(0%, 16.07666%, 45.336914%)" offset="0.121094"/><stop stop-opacity="1" stop-color="rgb(0%, 16.003418%, 45.584106%)" offset="0.125"/><stop stop-opacity="1" stop-color="rgb(0%, 15.930176%, 45.831299%)" offset="0.128906"/><stop stop-opacity="1" stop-color="rgb(0%, 15.858459%, 46.078491%)" offset="0.132812"/><stop stop-opacity="1" stop-color="rgb(0%, 15.785217%, 46.325684%)" offset="0.136719"/><stop stop-opacity="1" stop-color="rgb(0%, 15.713501%, 46.572876%)" offset="0.140625"/><stop stop-opacity="1" stop-color="rgb(0%, 15.640259%, 46.820068%)" offset="0.144531"/><stop stop-opacity="1" stop-color="rgb(0%, 15.567017%, 47.067261%)" offset="0.148437"/><stop stop-opacity="1" stop-color="rgb(0%, 15.493774%, 47.314453%)" offset="0.152344"/><stop stop-opacity="1" stop-color="rgb(0%, 15.422058%, 47.561646%)" offset="0.15625"/><stop stop-opacity="1" stop-color="rgb(0%, 15.348816%, 47.808838%)" offset="0.160156"/><stop stop-opacity="1" stop-color="rgb(0%, 15.2771%, 48.05603%)" offset="0.164063"/><stop stop-opacity="1" stop-color="rgb(0%, 15.203857%, 48.303223%)" offset="0.167969"/><stop stop-opacity="1" stop-color="rgb(0%, 15.130615%, 48.550415%)" offset="0.171875"/><stop stop-opacity="1" stop-color="rgb(0%, 15.057373%, 48.797607%)" offset="0.175781"/><stop stop-opacity="1" stop-color="rgb(0%, 14.985657%, 49.0448%)" offset="0.179688"/><stop stop-opacity="1" stop-color="rgb(0%, 14.912415%, 49.291992%)" offset="0.183594"/><stop stop-opacity="1" stop-color="rgb(0%, 14.840698%, 49.539185%)" offset="0.1875"/><stop stop-opacity="1" stop-color="rgb(0%, 14.767456%, 49.786377%)" offset="0.191406"/><stop stop-opacity="1" stop-color="rgb(0%, 14.69574%, 50.033569%)" offset="0.195312"/><stop stop-opacity="1" stop-color="rgb(0%, 14.622498%, 50.280762%)" offset="0.199219"/><stop stop-opacity="1" stop-color="rgb(0%, 14.549255%, 50.527954%)" offset="0.203125"/><stop stop-opacity="1" stop-color="rgb(0%, 14.476013%, 50.775146%)" offset="0.207031"/><stop stop-opacity="1" stop-color="rgb(0%, 14.404297%, 51.022339%)" offset="0.210937"/><stop stop-opacity="1" stop-color="rgb(0%, 14.331055%, 51.269531%)" offset="0.214844"/><stop stop-opacity="1" stop-color="rgb(0%, 14.259338%, 51.516724%)" offset="0.21875"/><stop stop-opacity="1" stop-color="rgb(0%, 14.186096%, 51.763916%)" offset="0.222656"/><stop stop-opacity="1" stop-color="rgb(0%, 14.112854%, 52.011108%)" offset="0.226563"/><stop stop-opacity="1" stop-color="rgb(0%, 14.039612%, 52.258301%)" offset="0.230469"/><stop stop-opacity="1" stop-color="rgb(0%, 13.967896%, 52.505493%)" offset="0.234375"/><stop stop-opacity="1" stop-color="rgb(0%, 13.894653%, 52.752686%)" offset="0.238281"/><stop stop-opacity="1" stop-color="rgb(0%, 13.822937%, 52.999878%)" offset="0.242188"/><stop stop-opacity="1" stop-color="rgb(0%, 13.749695%, 53.24707%)" offset="0.246094"/><stop stop-opacity="1" stop-color="rgb(0%, 13.676453%, 53.494263%)" offset="0.25"/><stop stop-opacity="1" stop-color="rgb(0%, 13.60321%, 53.741455%)" offset="0.253906"/><stop stop-opacity="1" stop-color="rgb(0%, 13.531494%, 53.988647%)" offset="0.257812"/><stop stop-opacity="1" stop-color="rgb(0%, 13.458252%, 54.23584%)" offset="0.261719"/><stop stop-opacity="1" stop-color="rgb(0%, 13.386536%, 54.483032%)" offset="0.265625"/><stop stop-opacity="1" stop-color="rgb(0%, 13.313293%, 54.730225%)" offset="0.269531"/><stop stop-opacity="1" stop-color="rgb(0%, 13.241577%, 54.977417%)" offset="0.273438"/><stop stop-opacity="1" stop-color="rgb(0%, 13.168335%, 55.224609%)" offset="0.277344"/><stop stop-opacity="1" stop-color="rgb(0%, 13.095093%, 55.471802%)" offset="0.28125"/><stop stop-opacity="1" stop-color="rgb(0%, 13.021851%, 55.718994%)" offset="0.285156"/><stop stop-opacity="1" stop-color="rgb(0%, 12.950134%, 55.966187%)" offset="0.289062"/><stop stop-opacity="1" stop-color="rgb(0%, 12.876892%, 56.213379%)" offset="0.292969"/><stop stop-opacity="1" stop-color="rgb(0%, 12.805176%, 56.460571%)" offset="0.296875"/><stop stop-opacity="1" stop-color="rgb(0%, 12.731934%, 56.707764%)" offset="0.300781"/><stop stop-opacity="1" stop-color="rgb(0%, 12.658691%, 56.954956%)" offset="0.304688"/><stop stop-opacity="1" stop-color="rgb(0%, 12.585449%, 57.202148%)" offset="0.308594"/><stop stop-opacity="1" stop-color="rgb(0%, 12.513733%, 57.449341%)" offset="0.3125"/><stop stop-opacity="1" stop-color="rgb(0%, 12.440491%, 57.696533%)" offset="0.316406"/><stop stop-opacity="1" stop-color="rgb(0%, 12.368774%, 57.943726%)" offset="0.320312"/><stop stop-opacity="1" stop-color="rgb(0%, 12.295532%, 58.190918%)" offset="0.324219"/><stop stop-opacity="1" stop-color="rgb(0%, 12.22229%, 58.43811%)" offset="0.328125"/><stop stop-opacity="1" stop-color="rgb(0%, 12.149048%, 58.685303%)" offset="0.332031"/><stop stop-opacity="1" stop-color="rgb(0%, 12.077332%, 58.932495%)" offset="0.335938"/><stop stop-opacity="1" stop-color="rgb(0%, 12.004089%, 59.179688%)" offset="0.339844"/><stop stop-opacity="1" stop-color="rgb(0%, 11.932373%, 59.42688%)" offset="0.34375"/><stop stop-opacity="1" stop-color="rgb(0%, 11.859131%, 59.674072%)" offset="0.347656"/><stop stop-opacity="1" stop-color="rgb(0%, 11.787415%, 59.921265%)" offset="0.351562"/><stop stop-opacity="1" stop-color="rgb(0%, 11.714172%, 60.168457%)" offset="0.355469"/><stop stop-opacity="1" stop-color="rgb(0%, 11.64093%, 60.415649%)" offset="0.359375"/><stop stop-opacity="1" stop-color="rgb(0%, 11.567688%, 60.662842%)" offset="0.363281"/><stop stop-opacity="1" stop-color="rgb(0%, 11.495972%, 60.910034%)" offset="0.367188"/><stop stop-opacity="1" stop-color="rgb(0%, 11.422729%, 61.157227%)" offset="0.371094"/><stop stop-opacity="1" stop-color="rgb(0%, 11.351013%, 61.404419%)" offset="0.375"/><stop stop-opacity="1" stop-color="rgb(0%, 11.277771%, 61.651611%)" offset="0.378906"/><stop stop-opacity="1" stop-color="rgb(0%, 11.204529%, 61.898804%)" offset="0.382812"/><stop stop-opacity="1" stop-color="rgb(0%, 11.131287%, 62.145996%)" offset="0.386719"/><stop stop-opacity="1" stop-color="rgb(0%, 11.05957%, 62.393188%)" offset="0.390625"/><stop stop-opacity="1" stop-color="rgb(0%, 10.986328%, 62.640381%)" offset="0.394531"/><stop stop-opacity="1" stop-color="rgb(0%, 10.914612%, 62.887573%)" offset="0.398438"/><stop stop-opacity="1" stop-color="rgb(0%, 10.84137%, 63.134766%)" offset="0.402344"/><stop stop-opacity="1" stop-color="rgb(0%, 10.768127%, 63.381958%)" offset="0.40625"/><stop stop-opacity="1" stop-color="rgb(0%, 10.694885%, 63.62915%)" offset="0.410156"/><stop stop-opacity="1" stop-color="rgb(0%, 10.623169%, 63.876343%)" offset="0.414062"/><stop stop-opacity="1" stop-color="rgb(0%, 10.549927%, 64.123535%)" offset="0.417969"/><stop stop-opacity="1" stop-color="rgb(0%, 10.47821%, 64.370728%)" offset="0.421875"/><stop stop-opacity="1" stop-color="rgb(0%, 10.404968%, 64.61792%)" offset="0.425781"/><stop stop-opacity="1" stop-color="rgb(0%, 10.333252%, 64.865112%)" offset="0.429688"/><stop stop-opacity="1" stop-color="rgb(0%, 10.26001%, 65.112305%)" offset="0.433594"/><stop stop-opacity="1" stop-color="rgb(0%, 10.186768%, 65.359497%)" offset="0.4375"/><stop stop-opacity="1" stop-color="rgb(0%, 10.113525%, 65.606689%)" offset="0.441406"/><stop stop-opacity="1" stop-color="rgb(0%, 10.041809%, 65.853882%)" offset="0.445312"/><stop stop-opacity="1" stop-color="rgb(0%, 9.968567%, 66.101074%)" offset="0.449219"/><stop stop-opacity="1" stop-color="rgb(0%, 9.896851%, 66.349792%)" offset="0.453125"/><stop stop-opacity="1" stop-color="rgb(0%, 9.823608%, 66.596985%)" offset="0.457031"/><stop stop-opacity="1" stop-color="rgb(0%, 9.750366%, 66.844177%)" offset="0.460938"/><stop stop-opacity="1" stop-color="rgb(0%, 9.677124%, 67.09137%)" offset="0.464844"/><stop stop-opacity="1" stop-color="rgb(0%, 9.605408%, 67.338562%)" offset="0.46875"/><stop stop-opacity="1" stop-color="rgb(0%, 9.532166%, 67.585754%)" offset="0.472656"/><stop stop-opacity="1" stop-color="rgb(0%, 9.460449%, 67.832947%)" offset="0.476562"/><stop stop-opacity="1" stop-color="rgb(0%, 9.387207%, 68.080139%)" offset="0.480469"/><stop stop-opacity="1" stop-color="rgb(0%, 9.313965%, 68.327332%)" offset="0.484375"/><stop stop-opacity="1" stop-color="rgb(0%, 9.240723%, 68.574524%)" offset="0.488281"/><stop stop-opacity="1" stop-color="rgb(0%, 9.169006%, 68.821716%)" offset="0.492187"/><stop stop-opacity="1" stop-color="rgb(0%, 9.095764%, 69.068909%)" offset="0.496094"/><stop stop-opacity="1" stop-color="rgb(0%, 9.024048%, 69.316101%)" offset="0.5"/><stop stop-opacity="1" stop-color="rgb(0%, 8.950806%, 69.563293%)" offset="0.503906"/><stop stop-opacity="1" stop-color="rgb(0%, 8.879089%, 69.810486%)" offset="0.507812"/><stop stop-opacity="1" stop-color="rgb(0%, 8.805847%, 70.057678%)" offset="0.511719"/><stop stop-opacity="1" stop-color="rgb(0%, 8.732605%, 70.304871%)" offset="0.515625"/><stop stop-opacity="1" stop-color="rgb(0%, 8.659363%, 70.552063%)" offset="0.519531"/><stop stop-opacity="1" stop-color="rgb(0%, 8.587646%, 70.799255%)" offset="0.523437"/><stop stop-opacity="1" stop-color="rgb(0%, 8.514404%, 71.046448%)" offset="0.527344"/><stop stop-opacity="1" stop-color="rgb(0%, 8.442688%, 71.29364%)" offset="0.53125"/><stop stop-opacity="1" stop-color="rgb(0%, 8.369446%, 71.540833%)" offset="0.535156"/><stop stop-opacity="1" stop-color="rgb(0%, 8.296204%, 71.788025%)" offset="0.539062"/><stop stop-opacity="1" stop-color="rgb(0%, 8.222961%, 72.035217%)" offset="0.542969"/><stop stop-opacity="1" stop-color="rgb(0%, 8.151245%, 72.28241%)" offset="0.546875"/><stop stop-opacity="1" stop-color="rgb(0%, 8.078003%, 72.529602%)" offset="0.550781"/><stop stop-opacity="1" stop-color="rgb(0%, 8.006287%, 72.776794%)" offset="0.554687"/><stop stop-opacity="1" stop-color="rgb(0%, 7.933044%, 73.023987%)" offset="0.558594"/><stop stop-opacity="1" stop-color="rgb(0%, 7.859802%, 73.271179%)" offset="0.5625"/><stop stop-opacity="1" stop-color="rgb(0%, 7.78656%, 73.518372%)" offset="0.566406"/><stop stop-opacity="1" stop-color="rgb(0%, 7.714844%, 73.765564%)" offset="0.570312"/><stop stop-opacity="1" stop-color="rgb(0%, 7.641602%, 74.012756%)" offset="0.574219"/><stop stop-opacity="1" stop-color="rgb(0%, 7.569885%, 74.259949%)" offset="0.578125"/><stop stop-opacity="1" stop-color="rgb(0%, 7.496643%, 74.507141%)" offset="0.582031"/><stop stop-opacity="1" stop-color="rgb(0%, 7.424927%, 74.754333%)" offset="0.585937"/><stop stop-opacity="1" stop-color="rgb(0%, 7.351685%, 75.001526%)" offset="0.589844"/><stop stop-opacity="1" stop-color="rgb(0%, 7.278442%, 75.248718%)" offset="0.59375"/><stop stop-opacity="1" stop-color="rgb(0%, 7.2052%, 75.495911%)" offset="0.597656"/><stop stop-opacity="1" stop-color="rgb(0%, 7.133484%, 75.743103%)" offset="0.601562"/><stop stop-opacity="1" stop-color="rgb(0%, 7.060242%, 75.990295%)" offset="0.605469"/><stop stop-opacity="1" stop-color="rgb(0%, 6.988525%, 76.237488%)" offset="0.609375"/><stop stop-opacity="1" stop-color="rgb(0%, 6.915283%, 76.48468%)" offset="0.613281"/><stop stop-opacity="1" stop-color="rgb(0%, 6.842041%, 76.731873%)" offset="0.617187"/><stop stop-opacity="1" stop-color="rgb(0%, 6.768799%, 76.979065%)" offset="0.621094"/><stop stop-opacity="1" stop-color="rgb(0%, 6.697083%, 77.226257%)" offset="0.625"/><stop stop-opacity="1" stop-color="rgb(0%, 6.62384%, 77.47345%)" offset="0.628906"/><stop stop-opacity="1" stop-color="rgb(0%, 6.552124%, 77.720642%)" offset="0.632812"/><stop stop-opacity="1" stop-color="rgb(0%, 6.478882%, 77.967834%)" offset="0.636719"/><stop stop-opacity="1" stop-color="rgb(0%, 6.40564%, 78.215027%)" offset="0.640625"/><stop stop-opacity="1" stop-color="rgb(0%, 6.332397%, 78.462219%)" offset="0.644531"/><stop stop-opacity="1" stop-color="rgb(0%, 6.260681%, 78.709412%)" offset="0.648437"/><stop stop-opacity="1" stop-color="rgb(0%, 6.187439%, 78.956604%)" offset="0.652344"/><stop stop-opacity="1" stop-color="rgb(0%, 6.115723%, 79.203796%)" offset="0.65625"/><stop stop-opacity="1" stop-color="rgb(0%, 6.04248%, 79.450989%)" offset="0.660156"/><stop stop-opacity="1" stop-color="rgb(0%, 5.970764%, 79.698181%)" offset="0.664062"/><stop stop-opacity="1" stop-color="rgb(0%, 5.897522%, 79.945374%)" offset="0.667969"/><stop stop-opacity="1" stop-color="rgb(0%, 5.82428%, 80.192566%)" offset="0.671875"/><stop stop-opacity="1" stop-color="rgb(0%, 5.751038%, 80.439758%)" offset="0.675781"/><stop stop-opacity="1" stop-color="rgb(0%, 5.679321%, 80.686951%)" offset="0.679688"/><stop stop-opacity="1" stop-color="rgb(0%, 5.606079%, 80.934143%)" offset="0.683594"/><stop stop-opacity="1" stop-color="rgb(0%, 5.534363%, 81.181335%)" offset="0.6875"/><stop stop-opacity="1" stop-color="rgb(0%, 5.461121%, 81.428528%)" offset="0.691406"/><stop stop-opacity="1" stop-color="rgb(0%, 5.387878%, 81.67572%)" offset="0.695312"/><stop stop-opacity="1" stop-color="rgb(0%, 5.314636%, 81.922913%)" offset="0.699219"/><stop stop-opacity="1" stop-color="rgb(0%, 5.24292%, 82.170105%)" offset="0.703125"/><stop stop-opacity="1" stop-color="rgb(0%, 5.169678%, 82.417297%)" offset="0.707031"/><stop stop-opacity="1" stop-color="rgb(0%, 5.097961%, 82.66449%)" offset="0.710938"/><stop stop-opacity="1" stop-color="rgb(0%, 5.024719%, 82.911682%)" offset="0.714844"/><stop stop-opacity="1" stop-color="rgb(0%, 4.951477%, 83.158875%)" offset="0.71875"/><stop stop-opacity="1" stop-color="rgb(0%, 4.878235%, 83.406067%)" offset="0.722656"/><stop stop-opacity="1" stop-color="rgb(0%, 4.806519%, 83.653259%)" offset="0.726562"/><stop stop-opacity="1" stop-color="rgb(0%, 4.733276%, 83.900452%)" offset="0.730469"/><stop stop-opacity="1" stop-color="rgb(0%, 4.66156%, 84.147644%)" offset="0.734375"/><stop stop-opacity="1" stop-color="rgb(0%, 4.588318%, 84.394836%)" offset="0.738281"/><stop stop-opacity="1" stop-color="rgb(0%, 4.516602%, 84.642029%)" offset="0.742188"/><stop stop-opacity="1" stop-color="rgb(0%, 4.443359%, 84.889221%)" offset="0.746094"/><stop stop-opacity="1" stop-color="rgb(0%, 4.370117%, 85.136414%)" offset="0.75"/><stop stop-opacity="1" stop-color="rgb(0%, 4.296875%, 85.383606%)" offset="0.753906"/><stop stop-opacity="1" stop-color="rgb(0%, 4.225159%, 85.630798%)" offset="0.757812"/><stop stop-opacity="1" stop-color="rgb(0%, 4.151917%, 85.877991%)" offset="0.761719"/><stop stop-opacity="1" stop-color="rgb(0%, 4.0802%, 86.125183%)" offset="0.765625"/><stop stop-opacity="1" stop-color="rgb(0%, 4.006958%, 86.372375%)" offset="0.769531"/><stop stop-opacity="1" stop-color="rgb(0%, 3.933716%, 86.619568%)" offset="0.773437"/><stop stop-opacity="1" stop-color="rgb(0%, 3.860474%, 86.86676%)" offset="0.777344"/><stop stop-opacity="1" stop-color="rgb(0%, 3.788757%, 87.113953%)" offset="0.78125"/><stop stop-opacity="1" stop-color="rgb(0%, 3.715515%, 87.361145%)" offset="0.785156"/><stop stop-opacity="1" stop-color="rgb(0%, 3.643799%, 87.608337%)" offset="0.789062"/><stop stop-opacity="1" stop-color="rgb(0%, 3.570557%, 87.85553%)" offset="0.792969"/><stop stop-opacity="1" stop-color="rgb(0%, 3.497314%, 88.102722%)" offset="0.796875"/><stop stop-opacity="1" stop-color="rgb(0%, 3.424072%, 88.349915%)" offset="0.800781"/><stop stop-opacity="1" stop-color="rgb(0%, 3.352356%, 88.597107%)" offset="0.804687"/><stop stop-opacity="1" stop-color="rgb(0%, 3.279114%, 88.844299%)" offset="0.808594"/><stop stop-opacity="1" stop-color="rgb(0%, 3.207397%, 89.091492%)" offset="0.8125"/><stop stop-opacity="1" stop-color="rgb(0%, 3.134155%, 89.338684%)" offset="0.816406"/><stop stop-opacity="1" stop-color="rgb(0%, 3.062439%, 89.585876%)" offset="0.820312"/><stop stop-opacity="1" stop-color="rgb(0%, 2.989197%, 89.833069%)" offset="0.824219"/><stop stop-opacity="1" stop-color="rgb(0%, 2.915955%, 90.080261%)" offset="0.828125"/><stop stop-opacity="1" stop-color="rgb(0%, 2.842712%, 90.327454%)" offset="0.832031"/><stop stop-opacity="1" stop-color="rgb(0%, 2.770996%, 90.574646%)" offset="0.835937"/><stop stop-opacity="1" stop-color="rgb(0%, 2.697754%, 90.821838%)" offset="0.839844"/><stop stop-opacity="1" stop-color="rgb(0%, 2.626038%, 91.069031%)" offset="0.84375"/><stop stop-opacity="1" stop-color="rgb(0%, 2.552795%, 91.316223%)" offset="0.847656"/><stop stop-opacity="1" stop-color="rgb(0%, 2.479553%, 91.563416%)" offset="0.851562"/><stop stop-opacity="1" stop-color="rgb(0%, 2.406311%, 91.810608%)" offset="0.855469"/><stop stop-opacity="1" stop-color="rgb(0%, 2.334595%, 92.0578%)" offset="0.859375"/><stop stop-opacity="1" stop-color="rgb(0%, 2.261353%, 92.304993%)" offset="0.863281"/><stop stop-opacity="1" stop-color="rgb(0%, 2.189636%, 92.552185%)" offset="0.867187"/><stop stop-opacity="1" stop-color="rgb(0%, 2.116394%, 92.799377%)" offset="0.871094"/><stop stop-opacity="1" stop-color="rgb(0%, 2.044678%, 93.04657%)" offset="0.875"/><stop stop-opacity="1" stop-color="rgb(0%, 1.971436%, 93.293762%)" offset="0.878906"/><stop stop-opacity="1" stop-color="rgb(0%, 1.898193%, 93.54248%)" offset="0.882812"/><stop stop-opacity="1" stop-color="rgb(0%, 1.824951%, 93.789673%)" offset="0.886719"/><stop stop-opacity="1" stop-color="rgb(0%, 1.753235%, 94.036865%)" offset="0.890625"/><stop stop-opacity="1" stop-color="rgb(0%, 1.679993%, 94.284058%)" offset="0.894531"/><stop stop-opacity="1" stop-color="rgb(0%, 1.608276%, 94.53125%)" offset="0.898437"/><stop stop-opacity="1" stop-color="rgb(0%, 1.535034%, 94.778442%)" offset="0.902344"/><stop stop-opacity="1" stop-color="rgb(0%, 1.461792%, 95.025635%)" offset="0.90625"/><stop stop-opacity="1" stop-color="rgb(0%, 1.38855%, 95.272827%)" offset="0.910156"/><stop stop-opacity="1" stop-color="rgb(0%, 1.316833%, 95.52002%)" offset="0.914062"/><stop stop-opacity="1" stop-color="rgb(0%, 1.243591%, 95.767212%)" offset="0.917969"/><stop stop-opacity="1" stop-color="rgb(0%, 1.171875%, 96.014404%)" offset="0.921875"/><stop stop-opacity="1" stop-color="rgb(0%, 1.098633%, 96.261597%)" offset="0.925781"/><stop stop-opacity="1" stop-color="rgb(0%, 1.025391%, 96.508789%)" offset="0.929688"/><stop stop-opacity="1" stop-color="rgb(0%, 0.952148%, 96.755981%)" offset="0.933594"/><stop stop-opacity="1" stop-color="rgb(0%, 0.880432%, 97.003174%)" offset="0.9375"/><stop stop-opacity="1" stop-color="rgb(0%, 0.80719%, 97.250366%)" offset="0.941406"/><stop stop-opacity="1" stop-color="rgb(0%, 0.735474%, 97.497559%)" offset="0.945312"/><stop stop-opacity="1" stop-color="rgb(0%, 0.662231%, 97.744751%)" offset="0.949219"/><stop stop-opacity="1" stop-color="rgb(0%, 0.590515%, 97.991943%)" offset="0.953125"/><stop stop-opacity="1" stop-color="rgb(0%, 0.517273%, 98.239136%)" offset="0.957031"/><stop stop-opacity="1" stop-color="rgb(0%, 0.444031%, 98.486328%)" offset="0.960938"/><stop stop-opacity="1" stop-color="rgb(0%, 0.370789%, 98.733521%)" offset="0.964844"/><stop stop-opacity="1" stop-color="rgb(0%, 0.299072%, 98.980713%)" offset="0.96875"/><stop stop-opacity="1" stop-color="rgb(0%, 0.22583%, 99.227905%)" offset="0.972656"/><stop stop-opacity="1" stop-color="rgb(0%, 0.154114%, 99.475098%)" offset="0.976562"/><stop stop-opacity="1" stop-color="rgb(0%, 0.0808716%, 99.72229%)" offset="0.980469"/><stop stop-opacity="1" stop-color="rgb(0%, 0.00762939%, 99.969482%)" offset="0.984375"/><stop stop-opacity="1" stop-color="rgb(0%, 0.00305176%, 99.984741%)" offset="1"/></linearGradient></defs><g clip-path="url(#87abad0b7f)"><g clip-path="url(#e12ec84a7a)"><path fill="url(#bfb66ac876)" d="M 17.847656 74.007812 L 17.847656 1.214844 L 357.386719 1.214844 L 357.386719 74.007812 Z M 17.847656 74.007812 " fill-rule="nonzero"/></g></g><path fill="#ff0000" d="M 94.464844 22.28125 C 93.539062 21.027344 92.332031 20.011719 90.933594 19.328125 C 92.652344 18.144531 93.679688 16.1875 93.675781 14.097656 C 93.675781 10.472656 91.214844 7.734375 86.683594 7.734375 L 84.914062 7.734375 L 84.914062 22.28125 C 84.910156 22.28125 94.464844 22.28125 94.464844 22.28125 Z M 83.988281 7.734375 L 75.210938 7.734375 L 75.210938 22.28125 L 83.984375 22.28125 L 83.984375 7.734375 Z M 83.988281 23.195312 L 75.210938 23.195312 L 75.210938 37.738281 L 83.984375 37.738281 L 83.984375 23.195312 Z M 84.910156 23.1875 L 84.910156 37.738281 L 86.699219 37.738281 C 92.640625 37.738281 96.40625 33.519531 96.40625 28.039062 C 96.40625 26.332031 95.945312 24.660156 95.082031 23.1875 Z M 42.527344 22.28125 L 37.390625 7.734375 L 33.460938 7.734375 L 33.460938 22.28125 Z M 32.550781 22.28125 L 32.550781 7.734375 L 28.617188 7.734375 L 23.484375 22.28125 Z M 32.550781 23.1875 L 23.160156 23.1875 L 18.027344 37.738281 L 25.589844 37.738281 L 27.714844 31.671875 L 32.554688 31.671875 L 32.554688 23.1875 Z M 33.457031 23.1875 L 33.457031 31.671875 L 38.300781 31.671875 L 40.414062 37.738281 L 47.976562 37.738281 L 42.839844 23.195312 Z M 69.65625 22.28125 C 68.730469 21.027344 67.523438 20.011719 66.125 19.328125 C 67.835938 18.140625 68.859375 16.183594 68.859375 14.097656 C 68.859375 10.472656 66.402344 7.734375 61.875 7.734375 L 60.085938 7.734375 L 60.085938 22.28125 C 60.082031 22.28125 69.65625 22.28125 69.65625 22.28125 Z M 59.179688 7.734375 L 50.40625 7.734375 L 50.40625 22.28125 L 59.179688 22.28125 Z M 59.179688 23.195312 L 50.40625 23.195312 L 50.40625 37.738281 L 59.179688 37.738281 Z M 60.082031 23.1875 L 60.082031 37.738281 L 61.867188 37.738281 C 67.816406 37.738281 71.582031 33.519531 71.582031 28.039062 C 71.582031 26.332031 71.125 24.660156 70.257812 23.1875 Z M 60.082031 23.1875 " fill-opacity="1" fill-rule="nonzero"/></svg>